<?xml version="1.0" encoding="utf-8"?>
<!-- Generator: Adobe Illustrator 16.0.0, SVG Export Plug-In . SVG Version: 6.00 Build 0)  -->
<!DOCTYPE svg PUBLIC "-//W3C//DTD SVG 1.1//EN" "http://www.w3.org/Graphics/SVG/1.1/DTD/svg11.dtd">
<svg version="1.1" id="Layer_1" xmlns="http://www.w3.org/2000/svg" xmlns:xlink="http://www.w3.org/1999/xlink" x="0px" y="0px"
	 width="454px" height="65px" viewBox="0 0 454 65" enable-background="new 0 0 454 65" xml:space="preserve">
<g>
	<g>
		<path fill="#1D1D1B" d="M6.35,49.826c1.392,2.088,3.175,3.633,5.344,4.618c2.171,0.992,4.407,1.493,6.713,1.493
			c1.286,0,2.598-0.202,3.938-0.604c1.339-0.401,2.558-1.006,3.658-1.81c1.097-0.804,1.995-1.796,2.693-2.977
			c0.695-1.175,1.044-2.544,1.044-4.1c0-2.192-0.697-3.867-2.09-5.02c-1.395-1.155-3.122-2.115-5.184-2.893
			c-2.064-0.779-4.315-1.528-6.752-2.251c-2.439-0.723-4.689-1.728-6.752-3.016c-2.064-1.284-3.791-3.014-5.184-5.183
			c-1.394-2.172-2.09-5.103-2.09-8.801c0-1.66,0.362-3.431,1.085-5.305c0.723-1.875,1.861-3.59,3.416-5.144
			c1.553-1.557,3.55-2.854,5.989-3.897c2.437-1.045,5.372-1.57,8.801-1.57c3.106,0,6.081,0.431,8.921,1.287
			c2.84,0.86,5.332,2.598,7.475,5.226l-6.269,5.707c-0.965-1.498-2.332-2.705-4.099-3.619c-1.769-0.908-3.778-1.365-6.029-1.365
			c-2.144,0-3.925,0.281-5.346,0.846c-1.42,0.562-2.559,1.284-3.415,2.166c-0.858,0.885-1.461,1.836-1.81,2.854
			c-0.349,1.018-0.522,1.959-0.522,2.815c0,2.412,0.695,4.261,2.09,5.544c1.393,1.286,3.122,2.332,5.184,3.134
			c2.062,0.804,4.313,1.53,6.752,2.173c2.439,0.641,4.688,1.54,6.752,2.691c2.062,1.153,3.791,2.704,5.184,4.663
			c1.393,1.952,2.09,4.65,2.09,8.077c0,2.73-0.522,5.195-1.566,7.393c-1.046,2.199-2.452,4.048-4.222,5.546
			c-1.767,1.504-3.857,2.652-6.269,3.456c-2.413,0.805-4.984,1.208-7.717,1.208c-3.645,0-7.101-0.643-10.37-1.927
			C4.527,59.951,1.929,57.973,0,55.287L6.35,49.826z"/>
		<path fill="#1D1D1B" d="M43.888,0.957h7.233v28.536h0.16c0.912-2.037,2.493-3.684,4.743-4.942
			c2.251-1.262,4.849-1.891,7.797-1.891c1.821,0,3.577,0.283,5.265,0.843c1.688,0.562,3.162,1.438,4.422,2.612
			c1.258,1.181,2.262,2.695,3.014,4.544c0.75,1.847,1.126,4.03,1.126,6.55v24.515h-7.235V39.216c0-1.766-0.242-3.282-0.724-4.541
			c-0.481-1.258-1.125-2.278-1.93-3.056c-0.802-0.775-1.727-1.335-2.772-1.686c-1.045-0.349-2.131-0.522-3.255-0.522
			c-1.501,0-2.894,0.241-4.18,0.724c-1.287,0.48-2.412,1.245-3.376,2.29c-0.965,1.043-1.716,2.373-2.251,3.979
			c-0.537,1.608-0.805,3.512-0.805,5.704v19.615h-7.233V0.957z"/>
		<path fill="#1D1D1B" d="M85.121,28.287c2.035-1.875,4.393-3.282,7.073-4.223c2.679-0.933,5.358-1.404,8.038-1.404
			c2.785,0,5.185,0.348,7.195,1.044c2.009,0.697,3.656,1.639,4.942,2.812c1.287,1.181,2.237,2.536,2.854,4.061
			c0.617,1.526,0.924,3.123,0.924,4.783v19.449c0,1.343,0.027,2.574,0.081,3.697c0.053,1.128,0.133,2.198,0.242,3.218h-6.431
			c-0.16-1.934-0.242-3.86-0.242-5.785h-0.16c-1.607,2.464-3.511,4.202-5.708,5.22s-4.741,1.531-7.636,1.531
			c-1.767,0-3.456-0.247-5.064-0.728c-1.607-0.479-3.014-1.205-4.219-2.172c-1.207-0.96-2.158-2.154-2.854-3.574
			c-0.698-1.421-1.045-3.067-1.045-4.942c0-2.464,0.549-4.526,1.648-6.187c1.097-1.661,2.598-3.018,4.501-4.061
			c1.9-1.045,4.125-1.798,6.671-2.25c2.545-0.455,5.265-0.682,8.16-0.682h5.304v-1.607c0-0.967-0.188-1.93-0.563-2.894
			c-0.374-0.967-0.937-1.835-1.688-2.614c-0.75-0.775-1.688-1.394-2.814-1.849c-1.125-0.455-2.464-0.682-4.018-0.682
			c-1.395,0-2.612,0.134-3.659,0.403c-1.044,0.265-1.995,0.599-2.852,1.001c-0.858,0.402-1.636,0.874-2.332,1.408
			c-0.697,0.536-1.367,1.044-2.009,1.528L85.121,28.287z M105.538,43.398c-1.716,0-3.47,0.091-5.266,0.28
			c-1.796,0.188-3.429,0.551-4.903,1.082c-1.474,0.539-2.681,1.286-3.616,2.25c-0.939,0.967-1.408,2.2-1.408,3.697
			c0,2.2,0.736,3.782,2.211,4.742c1.474,0.965,3.469,1.447,5.988,1.447c1.981,0,3.669-0.333,5.063-1.006
			c1.393-0.669,2.519-1.539,3.376-2.609c0.856-1.075,1.474-2.262,1.848-3.58c0.375-1.31,0.563-2.613,0.563-3.897v-2.406H105.538z"/>
		<path fill="#1D1D1B" d="M123.062,23.623h7.233v5.87h0.16c0.483-1.018,1.125-1.942,1.93-2.776c0.804-0.829,1.701-1.537,2.693-2.127
			c0.991-0.59,2.075-1.057,3.254-1.407c1.179-0.35,2.358-0.522,3.537-0.522c1.18,0,2.25,0.159,3.216,0.483l-0.324,7.796
			c-0.59-0.163-1.177-0.295-1.767-0.402c-0.59-0.107-1.177-0.163-1.768-0.163c-3.537,0-6.243,0.992-8.119,2.978
			c-1.877,1.981-2.814,5.058-2.814,9.242v19.128h-7.233V23.623z"/>
		<path fill="#1D1D1B" d="M153.204,45.325c0,1.661,0.36,3.171,1.087,4.541c0.719,1.369,1.673,2.53,2.854,3.495
			c1.174,0.967,2.542,1.72,4.1,2.251c1.55,0.539,3.159,0.804,4.819,0.804c2.25,0,4.208-0.523,5.869-1.568
			c1.66-1.045,3.185-2.419,4.579-4.139l5.468,4.178c-4.021,5.201-9.645,7.803-16.88,7.803c-3,0-5.721-0.514-8.156-1.531
			c-2.442-1.018-4.501-2.425-6.191-4.216c-1.689-1.797-2.987-3.911-3.897-6.355c-0.912-2.434-1.366-5.073-1.366-7.914
			s0.493-5.479,1.485-7.916c0.992-2.436,2.358-4.554,4.1-6.35c1.742-1.794,3.82-3.202,6.229-4.22
			c2.41-1.018,5.037-1.528,7.877-1.528c3.376,0,6.227,0.59,8.562,1.767c2.329,1.181,4.245,2.722,5.747,4.625
			c1.499,1.901,2.582,4.043,3.255,6.428c0.668,2.386,1.002,4.812,1.002,7.271v2.574H153.204z M176.031,39.54
			c-0.055-1.609-0.311-3.082-0.765-4.423c-0.455-1.336-1.139-2.503-2.05-3.497c-0.912-0.989-2.05-1.767-3.415-2.327
			c-1.365-0.564-2.961-0.844-4.784-0.844c-1.767,0-3.389,0.334-4.864,1.002c-1.472,0.671-2.718,1.542-3.736,2.612
			c-1.018,1.075-1.81,2.266-2.37,3.58c-0.562,1.31-0.844,2.61-0.844,3.897H176.031z"/>
		<path fill="#1D1D1B" d="M227.23,4.813h6.993l24.355,56.909h-9.003l-5.702-14.069h-27.092l-5.624,14.069h-9.003L227.23,4.813z
			 M241.059,40.901l-10.611-26.119h-0.163l-10.767,26.119H241.059z"/>
	</g>
	<path fill-rule="evenodd" clip-rule="evenodd" fill="#E1061B" d="M324.979,53.115c2.307,3.58,7.995,9.741,19.775,9.755
		c16.31,0.006,24.54-10.442,24.54-22.43c0.021-11.966-7.756-21.799-23.56-21.806c-12.067-0.008-24.07,6.882-24.08,22.203
		c0,1.473,0.173,3.126,0.405,4.398c0.131,0.745,0.497,2.107,0.866,3.321c-2.744,3.618-8.017,8.854-15.761,8.854
		c-10.656-0.007-18.271-7.629-18.268-25.815c0.017-18.183,7.144-27.683,16.729-27.676c12.266,0.003,17.734,14.157,18.636,16.261
		l1.284-17.24C320.448,3.875,315.052,0.02,305.092,0c-18.702-0.009-32.349,14.231-32.355,32.613
		c-0.023,18.29,12.392,30.549,30.268,30.556C315.44,63.169,322.076,56.824,324.979,53.115L324.979,53.115L324.979,53.115z
		 M335.93,40.254c0-3.284-0.086-18.396,9.215-18.396c8.129,0.007,8.587,12.963,8.58,18.875c0,5.907-0.755,18.86-9.07,18.86
		C336.106,59.589,335.93,45.61,335.93,40.254L335.93,40.254z M372,9.642c0,1.65-0.026,51.924-0.026,51.924l13.478,0.007
		l0.014-15.885l2.029-2.639c0,0,4.807,8.353,7.687,12.889c2.88,4.526,6.461,6.874,12.59,6.88c5.682,0,10.092-3.373,10.092-3.373
		s4.526,3.426,13.088,3.432c14.894,0,18.805-11.436,19.298-12.958c0,0-5.806,6.667-15.47,6.653
		c-9.678-0.007-10.398-9.839-10.903-12.225c5.767-0.734,26.268-2.29,26.274-14.637c0.007-8.847-8.853-10.909-16.338-10.913
		c-14.595-0.006-24.646,9.671-24.66,22.87c0,9.464,4.106,13.575,5.39,14.983c-2.478,0.792-4.04,0.344-8.21-5.604
		c-2.129-3.055-10.022-15.972-10.022-15.972l14.489-16.783l-17.277-0.003c0.654,0,4.481,2.329,4.476,4.79
		c0.006,0.843-0.298,1.28-0.909,1.994c-0.608,0.708-11.629,13.579-11.629,13.579l0.02-35.693l-18.894-0.01
		C366.584,2.948,372,3.736,372,9.642L372,9.642z M431.134,22.176c4.759,0.007,5.836,5.87,5.824,9.876
		c0,8.292-12.765,8.694-13.361,8.694C423.615,27.259,427.734,22.179,431.134,22.176L431.134,22.176z"/>
</g>
</svg>
