<?xml version="1.0" encoding="utf-8"?>
<!-- Generator: Adobe Illustrator 16.0.0, SVG Export Plug-In . SVG Version: 6.00 Build 0)  -->
<!DOCTYPE svg PUBLIC "-//W3C//DTD SVG 1.1//EN" "http://www.w3.org/Graphics/SVG/1.1/DTD/svg11.dtd">
<svg version="1.1" id="Layer_1" xmlns="http://www.w3.org/2000/svg" xmlns:xlink="http://www.w3.org/1999/xlink" x="0px" y="0px"
	 width="64px" height="64px" viewBox="0 0 64 64" enable-background="new 0 0 64 64" xml:space="preserve">
<g>
	<g>
		<g>
			<rect x="5.5" y="11.861" fill="#FFFFFF" width="3.533" height="38.277"/>
			<rect x="10.8" y="11.861" fill="#FFFFFF" width="2.356" height="28.267"/>
			<rect x="17.278" y="11.861" fill="#FFFFFF" width="2.355" height="28.267"/>
			<rect x="21.4" y="11.861" fill="#FFFFFF" width="3.533" height="28.267"/>
			<rect x="14.333" y="11.861" fill="#FFFFFF" width="1.767" height="28.267"/>
			<rect x="26.111" y="11.861" fill="#FFFFFF" width="1.767" height="28.267"/>
			<polygon fill="#FFFFFF" points="38.085,11.861 34.355,11.861 34.355,40.128 38.085,40.128 39.165,40.128 41.422,40.128 
				41.422,11.861 39.165,11.861 			"/>
			<rect x="29.056" y="11.861" fill="#FFFFFF" width="2.944" height="28.267"/>
			<rect x="50.845" y="11.861" fill="#FFFFFF" width="3.533" height="28.267"/>
			<polygon fill="#FFFFFF" points="46.918,11.861 43.777,11.861 43.777,40.128 46.918,40.128 47.507,40.128 49.078,40.128 
				49.078,11.861 47.507,11.861 			"/>
			<rect x="55.556" y="11.861" fill="#FFFFFF" width="2.944" height="38.277"/>
		</g>
		<g>
			<path fill="#FFFFFF" d="M15.212,46.978c0,2.016-0.748,3.128-2.061,3.128c-1.158,0-1.943-1.085-1.961-3.047
				c0-1.987,0.857-3.082,2.061-3.082C14.501,43.977,15.212,45.089,15.212,46.978z M11.993,47.067c0,1.542,0.474,2.417,1.204,2.417
				c0.821,0,1.213-0.957,1.213-2.472c0-1.459-0.374-2.416-1.204-2.416C12.504,44.597,11.993,45.454,11.993,47.067z"/>
			<path fill="#FFFFFF" d="M17.787,44.825h-0.019l-1.03,0.556l-0.155-0.611l1.295-0.693h0.684v5.929h-0.775V44.825z"/>
			<path fill="#FFFFFF" d="M20.817,50.005v-0.492l0.629-0.611c1.514-1.441,2.198-2.207,2.207-3.102c0-0.602-0.292-1.158-1.176-1.158
				c-0.539,0-0.985,0.273-1.259,0.502l-0.255-0.565c0.411-0.347,0.995-0.602,1.679-0.602c1.277,0,1.815,0.875,1.815,1.724
				c0,1.094-0.793,1.979-2.043,3.183l-0.475,0.438v0.018h2.663v0.666H20.817L20.817,50.005z"/>
			<path fill="#FFFFFF" d="M25.78,49.084c0.228,0.146,0.756,0.374,1.313,0.374c1.031,0,1.351-0.656,1.341-1.149
				c-0.009-0.83-0.757-1.186-1.533-1.186h-0.447v-0.602h0.447c0.583,0,1.323-0.302,1.323-1.004c0-0.474-0.301-0.894-1.04-0.894
				c-0.475,0-0.93,0.21-1.186,0.393l-0.209-0.584c0.31-0.228,0.912-0.455,1.55-0.455c1.167,0,1.697,0.693,1.697,1.413
				c0,0.611-0.365,1.131-1.095,1.396v0.018c0.729,0.146,1.323,0.694,1.323,1.523c0,0.948-0.739,1.778-2.162,1.778
				c-0.665,0-1.249-0.209-1.541-0.4L25.78,49.084z"/>
			<path fill="#FFFFFF" d="M32.842,50.005v-1.614h-2.754v-0.529l2.644-3.785h0.867v3.685h0.83v0.629h-0.83v1.614L32.842,50.005
				L32.842,50.005L32.842,50.005z M32.842,47.762v-1.979c0-0.31,0.009-0.62,0.027-0.931h-0.027
				c-0.183,0.347-0.329,0.603-0.493,0.876l-1.45,2.016v0.019H32.842L32.842,47.762z"/>
			<path fill="#FFFFFF" d="M38.672,44.752H36.41l-0.229,1.523c0.137-0.019,0.265-0.037,0.483-0.037c0.456,0,0.912,0.101,1.277,0.319
				c0.465,0.265,0.848,0.774,0.848,1.523c0,1.158-0.921,2.024-2.207,2.024c-0.648,0-1.194-0.183-1.478-0.364l0.2-0.611
				c0.247,0.146,0.73,0.328,1.268,0.328c0.758,0,1.405-0.492,1.405-1.286c-0.01-0.766-0.52-1.312-1.705-1.312
				c-0.338,0-0.603,0.037-0.821,0.063l0.383-2.846h2.836L38.672,44.752L38.672,44.752L38.672,44.752z"/>
			<path fill="#FFFFFF" d="M43.289,44.643c-0.164-0.01-0.374,0-0.602,0.036c-1.26,0.21-1.926,1.131-2.062,2.107h0.027
				c0.282-0.375,0.774-0.685,1.432-0.685c1.049,0,1.788,0.757,1.788,1.916c0,1.085-0.739,2.088-1.971,2.088
				c-1.268,0-2.098-0.985-2.098-2.526c0-1.167,0.42-2.088,1.003-2.672c0.493-0.483,1.149-0.784,1.897-0.876
				c0.237-0.036,0.438-0.045,0.583-0.045L43.289,44.643L43.289,44.643L43.289,44.643z M43.062,48.062
				c0-0.848-0.484-1.359-1.223-1.359c-0.483,0-0.93,0.301-1.148,0.729c-0.056,0.091-0.092,0.209-0.092,0.356
				c0.019,0.976,0.466,1.696,1.305,1.696C42.596,49.485,43.062,48.91,43.062,48.062z"/>
			<path fill="#FFFFFF" d="M48.526,44.076v0.529l-2.581,5.399h-0.83l2.571-5.244v-0.019h-2.9v-0.666H48.526L48.526,44.076z"/>
			<path fill="#FFFFFF" d="M49.377,48.5c0-0.747,0.447-1.276,1.177-1.586l-0.01-0.028c-0.656-0.31-0.939-0.82-0.939-1.331
				c0-0.94,0.793-1.578,1.833-1.578c1.148,0,1.724,0.721,1.724,1.459c0,0.502-0.246,1.04-0.976,1.386v0.028
				c0.738,0.291,1.194,0.812,1.194,1.532c0,1.03-0.885,1.724-2.016,1.724C50.124,50.104,49.377,49.366,49.377,48.5z M52.569,48.464
				c0-0.721-0.502-1.068-1.305-1.295c-0.693,0.2-1.067,0.656-1.067,1.222c-0.027,0.602,0.43,1.131,1.186,1.131
				C52.104,49.521,52.569,49.074,52.569,48.464z M50.362,45.499c0,0.593,0.447,0.912,1.131,1.095
				c0.51-0.174,0.902-0.538,0.902-1.076c0-0.475-0.282-0.967-1.003-0.967C50.727,44.551,50.362,44.988,50.362,45.499z"/>
		</g>
	</g>
</g>
</svg>
