<?xml version="1.0" encoding="utf-8"?>
<!-- Generator: Adobe Illustrator 16.0.0, SVG Export Plug-In . SVG Version: 6.00 Build 0)  -->
<!DOCTYPE svg PUBLIC "-//W3C//DTD SVG 1.1//EN" "http://www.w3.org/Graphics/SVG/1.1/DTD/svg11.dtd">
<svg version="1.1" id="Layer_1" xmlns="http://www.w3.org/2000/svg" xmlns:xlink="http://www.w3.org/1999/xlink" x="0px" y="0px"
	 width="64px" height="64px" viewBox="0 0 64 64" enable-background="new 0 0 64 64" xml:space="preserve">
<g>
	<path fill-rule="evenodd" clip-rule="evenodd" fill="#FFFFFF" d="M24.899,40.393c0.773,3.812,0.75,7.147,0.055,10.079
		c-1.056,3.121-1.922,6.182,1.762,7.821c3.745,1.062,7.49,1.121,11.235-0.165c1.773-0.747,2.212-2.541,1.929-4.902
		c-1.202-3.492-1.829-7.175-0.826-11.401c0.849-4.615,0.862-9.282,0.155-13.99c-0.425-2.834-0.95-4.197-1.857-6.806
		c-0.772-2.22-1.365-4.495-1.747-6.836c-0.25-1.529-0.289-2.466-0.241-3.996c0.683-0.845,0.64-1.812,0-2.878
		c0.188-0.04,0.385-0.06,0.44-0.344c0.194-1.535-0.801-2.018-1.749-2.065c-1.193,0-2.386,0-3.58,0
		c-1.822-0.004-2.042,0.619-2.162,1.281c-0.089,0.707,0.039,1.079,0.441,1.157c-0.596,0.972-0.808,1.935-0.008,2.871
		C29.805,19.863,21.563,25.054,24.899,40.393z"/>
</g>
</svg>
